#!OML:ASF E:/inclinewalkrobotboard/Project1/Captureday1/Session1/subject1.ASF
:FULLY-SPECIFIED
:DEGREES
351
root 0 0 0 -0.38119421292407596 -2.0388710661838507 -3.8942125572637165
lowerback 16.580988543886328 1.0842019599039732 -0.13213643213511295
upperback 0.6192707226517742 1.417777136162629 0.31825481692693314
thorax -8.701734044764002 0.6702896816273338 0.0477583070269173
lowerneck -7.482469423915493 -3.2482646838328657 1.3643617568179862
upperneck -6.422716003003725 -4.2042165963526275 1.6798460876117545
head -0.8733815698254546 -2.1877499913241407 0.2191909906152447
rclavicle -3.8086656975104303E-16 2.0123909466358036E-17
rhumerus 12.129135331503988 0.5799886576590012 -39.39007581938655
rradius 118.94780434117438
rwrist -30.876250892643565
rhand -11.644742551179306 -36.77446252184965
rfingers 7.125019999999965
rthumb 14.436672340341273 -66.18358928094369
lclavicle -3.7829394183107614E-16 -4.4239264103841774E-16
lhumerus -43.59852983292495 -0.37632010739746047 83.19168259098076
lradius 45.619365852892074
lwrist 1.8041496336925682
lhand -15.297969002934071 -13.10995344931684
lfingers 7.125019999999941
lthumb 10.829585188852707 16.06401060044877
rfemur -2.674872560729198 0.9941153621178551 5.346334406337105
rtibia 8.010805859876733
rfoot -1.5059730972941403 -1.3033313635128314
rtoes 0.7654908834748333
lfemur -6.465367074918235 -3.604744446878394 -12.131154488473513
ltibia 27.308084913469923
lfoot -19.45952525069329 8.13749230923816
ltoes -43.86217915603453
352
root 0 0 0 -0.38114975352292935 -2.038931297563046 -3.894309864613976
lowerback 16.581519953707307 1.0840944973681603 -0.13221598945508595
upperback 0.6188247490328279 1.4176186154162171 0.318178017788169
thorax -8.702478020498368 0.6702054024281432 0.04771407687967433
lowerneck -7.482631688393858 -3.2481678116506294 1.364796230828809
upperneck -6.4265388177399885 -4.204014600836765 1.6794374968734647
head -0.874627832205455 -2.1877062182160145 0.219047729407935
rclavicle -3.808701311539348E-16 2.014560427420275E-17
rhumerus 12.129356933479478 0.5805975814634312 -39.389710676423405
rradius 118.94910240146336
rwrist -30.876824850661663
rhand -11.644480486277692 -36.77597880799338
rfingers 7.125019999999965
rthumb 14.436919749442957 -66.1850577021072
lclavicle -3.780911586529909E-16 -4.4224578321236616E-16
lhumerus -43.60031732207138 -0.3762289859738208 83.1919642173216
lradius 45.62178421549092
lwrist 1.8031756438045123
lhand -15.295969834601934 -13.116265090317475
lfingers 7.125019999999941
lthumb 10.83148745348592 16.057945234293133
rfemur -2.6741649521248485 0.9938422079928924 5.344897962227597
rtibia 8.008701009640278
rfoot -1.5055578074145903 -1.3029735176120174
rtoes 0.76527988426934
lfemur -6.46507290856821 -3.604949121533772 -12.130539077611953
ltibia 27.30750084017371
lfoot -19.460664109975113 8.138479531279438
ltoes -43.86546794883958
353
root 0 0 0 -0.38110517899845464 -2.0389916279376856 -3.8944076557756286
lowerback 16.582051648421626 1.0839871836944128 -0.13229539525657696
upperback 0.6183775601866848 1.417460310484919 0.3181009501232772
thorax -8.703223355088726 0.6701212065021498 0.04766940484078663
lowerneck -7.482794675429328 -3.2480710318640065 1.3652311707800986
upperneck -6.430367370556787 -4.203812790175739 1.6790288234151889
head -0.8758758998597145 -2.1876625460256065 0.2189044134659961
rclavicle -3.808735757699365E-16 2.0167371595988842E-17
rhumerus 12.129576951103466 0.5812095824494072 -39.38934586518971
rradius 118.95040330958497
rwrist -30.87740023251522
rhand -11.644216935678383 -36.777502026801116
rfingers 7.125019999999965
rthumb 14.437168562310674 -66.18653282241688
lclavicle -3.7788764058117004E-16 -4.420983538828518E-16
lhumerus -43.60211153592593 -0.3761375413658259 83.19224689176534
lradius 45.62421166558953
lwrist 1.8021980144674443
lhand -15.2939631926704 -13.122600429240604
lfingers 7.125019999999941
lthumb 10.833396845363996 16.05185711455983
rfemur -2.6734545771464022 0.9935679693278465 5.3434558403972225
rtibia 8.006587887606784
rfoot -1.5051408641288995 -1.3026142661855413
rtoes 0.7650680420841425
lfemur -6.464777542841705 -3.6051546077937657 -12.129921276484636
ltibia 27.30691445524856
lfoot -19.461807432478604 8.139470608920098
ltoes -43.86876957950583
354
root 0 0 0 -0.3810604839117877 -2.0390520643625325 -3.8945059451379294
lowerback 16.582583688239104 1.0838800092593197 -0.13237465665127968
upperback 0.617929098995578 1.4173022071171109 0.31802360332761215
thorax -8.703970139314102 0.6700370859618532 0.04762428214402081
lowerneck -7.482958408513296 -3.2479743358217052 1.3656666258982835
upperneck -6.434202116336618 -4.203611145688285 1.678620024223014
head -0.8771259204907498 -2.187618971489826 0.218761027469797
rclavicle -3.8087690335178617E-16 2.018921412313982E-17
rhumerus 12.129795397738285 0.5818247436686761 -39.388981349468246
rradius 118.9517072197878
rwrist -30.877977107246238
rhand -11.643951862555387 -36.779032381129234
rfingers 7.125019999999965
rthumb 14.437418813718656 -66.18801483820161
lclavicle -3.776833602896604E-16 -4.4195033318916403E-16
lhumerus -43.60391271338888 -0.37604576086825625 83.19253065206549
lradius 45.62664852502377
lwrist 1.8012166148986868
lhand -15.291948810428845 -13.128960308941094
lfingers 7.125019999999941
lthumb 10.835313618549977 16.045745431274227
rfemur -2.6727413407090417 0.9932926092904983 5.342007847377021
rtibia 8.004466210679348
rfoot -1.5047222114151078 -1.302253561099354
rtoes 0.7648553284381434
lfemur -6.464480937708448 -3.605360933367912 -12.129301002245898
ltibia 27.30632567972165
lfoot -19.462955371832273 8.140465675234923
ltoes -43.87208449120067
355
root 0 0 0 -0.3810156627676866 -2.039112613943663 -3.8946047473516425
lowerback 16.58311613354729 1.0837729645296215 -0.13245378066719127
upperback 0.6174793076901162 1.4171442911918968 0.31794596664807184
thorax -8.704718464696516 0.6699530329712955 0.04757869977740892
lowerneck -7.483122911538799 -3.2478777149381104 1.3661026456459537
upperneck -6.438043513078103 -4.203409648815238 1.6782110562560868
head -0.8783780427796835 -2.187575491409938 0.2186175560760368
rclavicle -3.8088011359758953E-16 2.0211134581695934E-17
rhumerus 12.130012285974608 0.5824431496716933 -39.388617093203635
rradius 118.95301428771435
rwrist -30.878555544589403
rhand -11.64368522935756 -36.780570077222656
rfingers 7.125019999999965
rthumb 14.437670539126294 -66.18950394906412
lclavicle -3.774782900645865E-16 -4.4180170097540974E-16
lhumerus -43.60572109682041 -0.3759536315954283 83.19281553651822
lradius 45.62909512027789
lwrist 1.800231312427485
lhand -15.28992641732434 -13.135345584456251
lfingers 7.125019999999941
lthumb 10.837238030774088 16.039609362760654
rfemur -2.6720251463105784 0.9930160904929848 5.340553786789593
rtibia 8.002335691524404
rfoot -1.504301792404381 -1.3018913534993195
rtoes 0.7646417144185607
lfemur -6.464183052519908 -3.605568126384946 -12.128678170817082
ltibia 27.305734433427297
lfoot -19.464108083967133 8.14146486528785
ltoes -43.875413133712186
